<?xml version="1.0" encoding="UTF-8"?>
<svg width="446px" height="941px" viewBox="0 0 446 941" version="1.1" xmlns="http://www.w3.org/2000/svg" xmlns:xlink="http://www.w3.org/1999/xlink">
    <!-- Generator: Sketch 64 (93537) - https://sketch.com -->
    <title>OnePlus 7T Pro Copy 2</title>
    <desc>Created with Sketch.</desc>
    <g id="OnePlus-7T-Pro-Copy-2" stroke="none" stroke-width="1" fill="none" fill-rule="evenodd">
        <g id="OnePlus-7T-Pro">
            <path d="M443,345 C444.656854,345 446,346.343146 446,348 L446,411 C446,412.597681 444.75108,413.903661 443.176273,413.994907 L443,414 L443,345 Z" id="button" fill="#5A5A5A"></path>
            <path d="M443,244 C444.656854,244 446,245.343146 446,247 L446,290 C446,291.597681 444.75108,292.903661 443.176273,292.994907 L443,293 L443,244 Z" id="lock" fill="#5A5A5A"></path>
            <path d="M2.82372721,212.005093 L3,212 L3,330 C1.34314575,330 0,328.656854 0,327 L0,215 C0,213.402319 1.24891996,212.096339 2.82372721,212.005093 Z" id="volume" fill="#5A5A5A"></path>
            <path d="M392,0 C422.166522,0 443,20.857769 443,51.0542553 L443,891.946809 C443,921.143296 425,941 386,941 L60,941 C21,941 3,921.143296 3,891.946809 L3,51.0542553 C3,20.857769 23.833478,0 54,0 L392,0 Z M385,21 L61,21 C35,21 16.9981892,35 16.9981892,60 L16.9981892,60 L16.9981892,872 C16.9981892,901 35,913 61,913 L61,913 L385,913 C411,913 429,901 429,872 L429,872 L429,60 C429,34.6258206 411,21 385,21 L385,21 Z" id="Combined-Shape" fill="#808288"></path>
            <path d="M395,6 C420.405098,6 441,26.5949015 441,52 L441,890 C441,915.405098 420.405098,936 395,936 L51,936 C25.5949015,936 5,915.405098 5,890 L5,52 C5,26.5949015 25.5949015,6 51,6 L395,6 Z M385,21 L61,21 C35.26,21 17.3590253,34.7214 17.0035798,59.253303 L16.9981892,60 L16.9981892,872 C16.9981892,900.71 34.641764,912.7583 60.2224095,913 L61,913 L385,913 C410.74,913 428.6392,901.2388 428.99461,872.864905 L429,872 L429,60 C429,34.8795624 411.3582,21.2736912 385.77759,21 L385,21 Z" id="Shape" fill="#08080A"></path>
        </g>
    </g>
</svg>